inDegrees=no
num_controls=7
num_derivatives=13
num_iterations=132
num_multipliers=7
num_parameters=0
num_slacks=7
num_states=26
objective=0.518780
objective_accelerations=0.036845
objective_balance=0.002147
objective_effort=0.041061
objective_height=0.426902
objective_ligament=0.011824
solver_duration=1744.769176
status=Solve_Succeeded
success=true
DataType=double
version=3
OpenSimVersion=4.5
endheader
time	/jointset/ground_pelvis/pelvis_tilt/value	/jointset/ground_pelvis/pelvis_tx/value	/jointset/ground_pelvis/pelvis_ty/value	/jointset/hip_l/hip_flexion_l/value	/jointset/hip_l/hip_adduction_l/value	/jointset/hip_l/hip_rotation_l/value	/jointset/back/lumbar_extension/value	/jointset/patellofemoral_l/patellar_flexion_l/value	/jointset/knee_l/knee_flexion_l/value	/jointset/knee_l/knee_adduction_l/value	/jointset/knee_l/knee_rotation_l/value	/jointset/ankle_l/ankle_angle_l/value	/jointset/subtalar_l/subtalar_angle_l/value	/jointset/ground_pelvis/pelvis_tilt/speed	/jointset/ground_pelvis/pelvis_tx/speed	/jointset/ground_pelvis/pelvis_ty/speed	/jointset/hip_l/hip_flexion_l/speed	/jointset/hip_l/hip_adduction_l/speed	/jointset/hip_l/hip_rotation_l/speed	/jointset/back/lumbar_extension/speed	/jointset/patellofemoral_l/patellar_flexion_l/speed	/jointset/knee_l/knee_flexion_l/speed	/jointset/knee_l/knee_adduction_l/speed	/jointset/knee_l/knee_rotation_l/speed	/jointset/ankle_l/ankle_angle_l/speed	/jointset/subtalar_l/subtalar_angle_l/speed	/forceset/tau_hip_flexion_l	/forceset/tau_hip_adduction_l	/forceset/tau_hip_rotation_l	/forceset/tau_knee_flexion_l	/forceset/tau_ankle_angle_l	/forceset/tau_subtalar_angle_l	/forceset/tau_lumbar_extension	lambda_cid13_p0	lambda_cid13_p1	lambda_cid13_p2	lambda_cid13_p3	lambda_cid13_p4	lambda_cid13_p5	lambda_cid14_p0	/jointset/ground_pelvis/pelvis_tilt/accel	/jointset/ground_pelvis/pelvis_tx/accel	/jointset/ground_pelvis/pelvis_ty/accel	/jointset/hip_l/hip_flexion_l/accel	/jointset/hip_l/hip_adduction_l/accel	/jointset/hip_l/hip_rotation_l/accel	/jointset/back/lumbar_extension/accel	/jointset/patellofemoral_l/patellar_flexion_l/accel	/jointset/knee_l/knee_flexion_l/accel	/jointset/knee_l/knee_adduction_l/accel	/jointset/knee_l/knee_rotation_l/accel	/jointset/ankle_l/ankle_angle_l/accel	/jointset/subtalar_l/subtalar_angle_l/accel	gamma_cid13_p0	gamma_cid13_p1	gamma_cid13_p2	gamma_cid13_p3	gamma_cid13_p4	gamma_cid13_p5	gamma_cid14_p0
1.5	-0.0003258692036618059	-0.01894044266367055	0.8768823892290213	0.583344205691351	-0.3104267962937694	-0.1900013639141181	-0.7774829687152457	0.6025212617047426	0.6025212617048381	-0.1112374164244045	-0.1745263876041512	0.06601707823595485	0.006674538620465981	0.34953158515086	0.270105622654444	0.3074418818556148	-1.737559985767081	0.09486437663684917	-0.5060071894178847	0.8408564005976806	-1.545599617708459	-1.545599617708302	-0.1238778145881235	1.242351645456522e-05	-0.2400984767952333	0.02488934849045053	-0.1939042533615835	0.01976302467824923	-0.003804400968918823	-0.1842687533157429	0.09294815046634318	0.04151722924964904	0.2739144770710004	-13.0652545653464	-18.02963655519385	5.031654640730685	-7.442104479063272	-675.4275963594063	-78.09150808061624	-20.95848403707729	-0.04330211611743294	0.5773449670617851	-0.4574704117080567	-0.5552812683383889	0.2864892977729313	-0.2139832685330993	1.672196192960526	-0.5512625758242096	-0.5512625758242462	-0.2643808397102309	0.0283237569035122	0.07292375992101395	0.3182841460839061	-1.729311417932576e-08	8.13494726515399e-07	1.518535238401584e-07	1.374514075374884e-07	3.305891685850206e-08	1.159981342156641e-07	7.256864395282789e-08
1.51	0.003166830110408668	-0.01621078138559571	0.8799333569403872	0.5659427802115444	-0.3094642587458412	-0.1950727864979662	-0.7689918905774763	0.5870396329025798	0.5870396329027047	-0.1124895466998317	-0.1745261661564018	0.06362005135333268	0.006938976221017592	0.3489605779382845	0.2757975750229472	0.3026959018269995	-1.742511026485944	0.09763360306065591	-0.5082217697685458	0.8572495779425671	-1.550525376535008	-1.550525376534932	-0.1265469144120217	3.578501520466536e-05	-0.2392610359485521	0.02800126241475995	-0.1868122122170161	0.01880660495696224	-0.003820922469397661	-0.1818726192094481	0.09279625087450979	0.04069522375214771	0.2673012467872855	-12.94765103859442	-17.73724947805751	5.035319674665391	-7.285372417016342	-672.1338642878271	-78.07390162968591	-21.35059345203034	-0.07116072989147723	0.5607858692718622	-0.4915133669529495	-0.4329102108418168	0.2705923891922891	-0.216792360420301	1.606431153097954	-0.4331343501908271	-0.4331343502027516	-0.267834347276165	-0.01007923069012534	0.09605343540014304	0.3079775739265179	-4.314565549245766e-09	8.029320739860262e-07	8.136858747054822e-08	1.265545466618716e-07	5.156633662313324e-08	1.307754458963946e-07	7.992363840874416e-08
1.52	0.006652387211135231	-0.01342506748433038	0.8829351945377643	0.5484982653771096	-0.3084743383187767	-0.200164674273735	-0.7603401701366898	0.5715147661493288	0.5715147661494802	-0.1137682999322036	-0.1745255954090789	0.06123277871684862	0.007234599472476587	0.3481031424831648	0.2813161472925429	0.2976158590577848	-1.746177856692068	0.1003409524647728	-0.5101002278027161	0.8729848612012674	-1.554247207926378	-1.554247207926381	-0.1292024059777826	8.228343191968123e-05	-0.2381476275675322	0.03112647867195149	-0.1797201710724442	0.01785018523567897	-0.003837443969867319	-0.1794764851031536	0.09264435128267615	0.03987321825464853	0.2606880165035729	-12.83624418932572	-17.44335452158747	5.038261376038754	-7.131797660234533	-668.9454057811135	-78.07543448397006	-21.71710183599332	-0.1005877646262934	0.5426689472802969	-0.5242829598279453	-0.298439165790706	0.2741138938349595	-0.1467588052349667	1.540617375723218	-0.3104770887881997	-0.3104770887882003	-0.261659188082779	0.03295114049648937	0.1281172667887462	0.3209446126603168	1.054591951567455e-09	8.045822626580037e-07	4.952072989788818e-08	1.20695776161339e-07	6.466617067491279e-08	1.393553392510939e-07	8.326467045872797e-08
1.53	0.01012794838042519	-0.01058512681984029	0.8858845936761001	0.5310236278484148	-0.3074576439492986	-0.2052738451283907	-0.7515346773450903	0.5559588202759893	0.5559588202760845	-0.1150733792262832	-0.1745246011755193	0.05885800498686206	0.007561553495110334	0.3469616298927906	0.2866332103263595	0.292210901534287	-1.748518053031291	0.1029862018514162	-0.5116890087108702	0.8879749634697748	-1.55672363170015	-1.55672363170004	-0.1317998755907066	0.0001068206999115398	-0.2367614943222907	0.03426545525041324	-0.1723843813031531	0.01679914397221504	-0.003900575774669852	-0.1771890288032507	0.09253564605999944	0.03896381278520822	0.2538098094299607	-12.71339935764642	-17.11071659131343	5.031841866629448	-6.901733158546724	-665.6918448985223	-78.02995388190661	-22.05562830552835	-0.12806015705711	0.5204326733876783	-0.5565470183759627	-0.1670797054251124	0.2578467564111353	-0.1581312959148074	1.457396604968571	-0.183491134596648	-0.1834911345795942	-0.256606773688078	-0.01426380224173807	0.1507246506607464	0.3104057607171348	-1.661228622465182e-09	8.192085951064157e-07	5.872476854698722e-08	1.201899766843334e-07	7.20204449067876e-08	1.413504756343852e-07	8.234086745240863e-08
1.54	0.01359066899363987	-0.007693173986620935	0.888778354265248	0.5135325343888322	-0.3064148738268981	-0.2103975425045838	-0.7425834455402958	0.5403846569423221	0.5403846569423707	-0.1164039964016366	-0.1745236553337332	0.05649846524878138	0.007919903599584185	0.3455350312698674	0.2917185810383962	0.2864881492201689	-1.749469042867987	0.1055561030513522	-0.5130055321113964	0.9021326638404503	-1.55789069999092	-1.557890699990696	-0.1343099822352706	7.260508021396714e-05	-0.2351008291862936	0.0374056950399958	-0.1650485915338725	0.01574810270874513	-0.003963707579384437	-0.1749015725033592	0.09242694083732163	0.03805440731577121	0.2469316023563435	-12.59658183157591	-16.77605969482779	5.023999877771519	-6.672988988206127	-662.5397804750618	-78.00014494447731	-22.36389240839693	-0.1576049711360798	0.4963304829242842	-0.5878419179519999	-0.02059786528524863	0.2590442564934591	-0.09230730370942189	1.374136996156833	-0.04860599218776342	-0.0486059921877617	-0.2441865944108004	0.02120056295860082	0.1830236449398599	0.3211972548844652	9.741174469754378e-09	8.223357058956177e-07	5.058386965591112e-09	1.108562820907999e-07	9.727592500993328e-08	1.594604836324106e-07	8.875906147008751e-08
1.55	0.01703773292641915	-0.004751594916340984	0.8916133655867411	0.496038766144235	-0.3053469263674118	-0.215532602182278	-0.7334950425870537	0.5248052304461472	0.5248052304461605	-0.1177597698463907	-0.1745230248114921	0.05415677558766201	0.008309459353837466	0.3438259377899269	0.2965508214295634	0.2804657001324674	-1.749038943087477	0.1080203074847059	-0.5139489407342374	0.9153927994220044	-1.557769810982889	-1.557769810982873	-0.1368290658375678	5.457995664545103e-05	-0.2331936897840947	0.04050460429595548	-0.1575490892876468	0.0145937176601104	-0.004073023329067871	-0.17280170521013	0.09246731230995962	0.03707368726932482	0.2399164837157604	-12.44402638711393	-16.41285975422897	5.007233979134777	-6.404023593463091	-659.4968287972646	-77.94704174316561	-22.63969661177923	-0.1853372594709269	0.469725182072477	-0.6166749168825438	0.1116611982436893	0.2380543041187273	-0.08664053588941026	1.278682731132711	0.07613220609067882	0.07613220605950741	-0.2532950671799848	-0.01319691525436891	0.2010912977698831	0.304004884433055	3.741022656874188e-08	8.122137134687741e-07	-1.210456527074585e-07	9.135131703691962e-08	1.431567075299769e-07	1.961376263169764e-07	1.036365129284596e-07
1.56	0.02046615077978588	-0.001763082569177471	0.8943867067148167	0.4785566683571472	-0.304254747710119	-0.2206753525250623	-0.7242786920996011	0.5092337520118156	0.509233752011785	-0.1191402392919771	-0.1745225531135309	0.05183546376254641	0.008729957625346535	0.341805815388079	0.3011052364151084	0.2741541105366322	-1.747134951365984	0.1104023426125517	-0.5145436651297978	0.9277221706826851	-1.556301087623172	-1.556301087623365	-0.1392491824014957	4.08402234850222e-05	-0.2310252619854964	0.04359419849116884	-0.1500495870414076	0.01343933261148517	-0.004182339078786499	-0.1707018379168934	0.09250768378259969	0.03609296722288396	0.2329013650751833	-12.29609764380363	-16.04861438044314	4.990032941648133	-6.145245804660442	-656.5364049424622	-77.91712246860942	-22.88348657182889	-0.2198107555175744	0.4407654017998585	-0.6456700195787708	0.2741805229113558	0.2426103953918702	-0.02257045825333332	1.187984131982163	0.2209608781492066	0.2209608781492102	-0.2243931867369821	0.02205764104020807	0.2352813242197469	0.319334242735193	6.656047230925676e-08	8.08675281685812e-07	-2.468976277280244e-07	7.072724935017038e-08	1.982379978092111e-07	2.373137606707333e-07	1.190010164162055e-07
1.57	0.02387296226510661	0.001269515631544749	0.8970955761152052	0.4611006641899572	-0.3031393617963382	-0.2258220676993778	-0.7149440558952798	0.4936834707556132	0.4936834707555975	-0.1205449412220636	-0.1745220662353963	0.04953696424458875	0.009181027116277829	0.3395056995508023	0.3053602542789752	0.2675766426535898	-1.743811873067827	0.1126557765144621	-0.5147440499881916	0.9390299821095469	-1.553520998873785	-1.553520998873966	-0.1416751014952837	5.057136126573408e-05	-0.2286333797926232	0.04661218233259214	-0.1424506617678673	0.01213584741005114	-0.004323488653416748	-0.1687848703853041	0.09261793120165897	0.03505593938670247	0.2258063249073938	-12.14234698316578	-15.65940967603947	4.967111243200472	-5.817021239295105	-653.7523936131348	-77.88595935716531	-23.09777968190639	-0.242728540186245	0.4097547660507592	-0.6701935748019534	0.3994775678918797	0.2137866468959498	-0.01034202399280914	1.075916437096798	0.3416287507021922	0.3416287507039651	-0.2491635902079053	-0.01056621652742421	0.2473532381146177	0.2918253681587153	9.756221010168083e-08	8.133663007077013e-07	-3.724345219329859e-07	4.870430337233492e-08	2.648199227874334e-07	2.841136346109791e-07	1.349743349406688e-07
